<svg width="183" height="171" viewBox="0 0 183 171" fill="none" xmlns="http://www.w3.org/2000/svg">
<path d="M124 132C111.893 141.106 97.1492 146.02 82 146C65.7512 146.024 50.0043 140.371 37.48 130.019C29.5041 123.458 23.082 115.21 18.6761 105.87C14.2702 96.529 11.9902 86.3276 12 76C12 37.339 43.339 6 82 6C120.661 6 152 37.339 152 76C152.005 86.8681 149.478 97.5879 144.617 107.309C139.757 117.029 132.698 125.483 124 132Z" fill="url(#paint0_radial_171_561)"/>
<path d="M85.3002 49.2233L93.1623 65.1823L110.782 67.7287C112.583 67.9869 113.305 70.2047 111.996 71.4838L99.2584 83.893L102.268 101.436C102.336 101.84 102.289 102.255 102.134 102.634C101.979 103.013 101.721 103.341 101.389 103.581C101.057 103.821 100.665 103.964 100.256 103.994C99.8479 104.023 99.4393 103.938 99.0765 103.748L83.3288 95.4574L67.581 103.748C67.2178 103.939 66.8085 104.024 66.3993 103.994C65.9901 103.965 65.5974 103.821 65.2654 103.58C64.9335 103.339 64.6755 103.01 64.5207 102.63C64.3658 102.25 64.3203 101.835 64.3892 101.43L67.4167 83.8872L54.6613 71.4779C54.3685 71.1915 54.1614 70.8291 54.0634 70.4314C53.9654 70.0337 53.9804 69.6165 54.1066 69.2269C54.2328 68.8372 54.4653 68.4906 54.7779 68.2259C55.0904 67.9612 55.4707 67.789 55.8758 67.7287L73.4952 65.1823L81.3574 49.2233C81.5394 48.856 81.8204 48.5469 82.1687 48.3308C82.5171 48.1146 82.9188 48.0001 83.3288 48.0001C83.7387 48.0001 84.1405 48.1146 84.4888 48.3308C84.8371 48.5469 85.1181 48.856 85.3002 49.2233Z" fill="url(#paint1_radial_171_561)"/>
<path d="M181.445 38.5029L177.503 37.7112C176.302 37.4605 175.176 36.9336 174.214 36.1722C173.252 35.4108 172.481 34.4359 171.961 33.3247L170.29 29.6727C170.153 29.3912 169.932 29.1592 169.658 29.0088C169.383 28.8583 169.069 28.7968 168.758 28.8328C168.447 28.8689 168.155 29.0006 167.923 29.2098C167.69 29.419 167.528 29.6953 167.459 30.0006L166.657 33.9391C166.412 35.1297 165.896 36.2478 165.149 37.2065C164.402 38.1652 163.444 38.9385 162.349 39.4664L158.692 41.1383C158.413 41.2771 158.184 41.4985 158.035 41.7724C157.887 42.0464 157.826 42.3594 157.862 42.6689C157.898 42.9784 158.028 43.2694 158.236 43.5021C158.443 43.7348 158.717 43.898 159.02 43.9693L162.963 44.766C164.166 45.018 165.293 45.5471 166.255 46.3111C167.217 47.0752 167.988 48.0532 168.506 49.1674L170.177 52.8194C170.314 53.1008 170.535 53.3328 170.81 53.4833C171.084 53.6338 171.398 53.6952 171.709 53.6592C172.02 53.6232 172.312 53.4915 172.545 53.2823C172.778 53.0731 172.94 52.7967 173.009 52.4915L173.806 48.5536C174.057 47.3536 174.585 46.2286 175.346 45.2676C176.107 44.3067 177.082 43.5362 178.193 43.017L181.85 41.3452C182.129 41.2064 182.358 40.9849 182.507 40.711C182.655 40.4371 182.716 40.124 182.68 39.8145C182.644 39.505 182.514 39.214 182.306 38.9813C182.099 38.7486 181.825 38.5855 181.522 38.5141L181.445 38.5029Z" fill="url(#paint2_radial_171_561)"/>
<path d="M152.52 1.93297L154.864 7.05221C155.588 8.60809 156.665 9.97316 158.01 11.0383C159.356 12.1035 160.931 12.8391 162.612 13.1866L168.136 14.2983L168.244 14.316C168.671 14.4129 169.057 14.64 169.35 14.9658C169.642 15.2917 169.826 15.7003 169.877 16.1352C169.927 16.5702 169.841 17.01 169.631 17.3941C169.421 17.7782 169.097 18.0876 168.703 18.2795L163.584 20.6241C162.026 21.3459 160.659 22.4221 159.592 23.7667C158.525 25.1113 157.788 26.6869 157.439 28.3675L156.326 33.8822C156.229 34.3092 156.002 34.6956 155.676 34.9881C155.35 35.2806 154.942 35.4647 154.507 35.5151C154.072 35.5655 153.632 35.4796 153.248 35.2694C152.864 35.0591 152.554 34.7348 152.363 34.3413L150.019 29.227C149.298 27.6647 148.221 26.2932 146.874 25.2227C145.527 24.1523 143.948 23.4127 142.263 23.0634L136.738 21.9517C136.311 21.8548 135.925 21.6277 135.632 21.3019C135.34 20.976 135.156 20.5674 135.105 20.1325C135.055 19.6975 135.141 19.2577 135.351 18.8736C135.561 18.4895 135.886 18.1801 136.279 17.9882L141.403 15.643C142.939 14.9092 144.283 13.829 145.33 12.4876C146.378 11.1461 147.1 9.57994 147.439 7.91226L148.552 2.39759C148.647 1.96899 148.874 1.58078 149.2 1.28686C149.527 0.992933 149.936 0.807865 150.373 0.757337C150.809 0.706809 151.25 0.793327 151.635 1.00488C152.02 1.21644 152.329 1.53758 152.52 1.93297Z" fill="url(#paint3_radial_171_561)"/>
<path d="M48.4666 154.336L44.4678 153.914C43.2488 153.776 42.0788 153.356 41.0503 152.688C40.0218 152.019 39.1631 151.12 38.5424 150.062L36.5387 146.581C36.3763 146.314 36.1348 146.103 35.8476 145.979C35.5604 145.855 35.2416 145.823 34.9354 145.887C34.6292 145.952 34.3508 146.11 34.1385 146.34C33.9262 146.57 33.7906 146.861 33.7504 147.171L33.318 151.167C33.1853 152.375 32.7757 153.536 32.1209 154.56C31.4662 155.584 30.584 156.444 29.543 157.071L26.0574 159.076C25.7926 159.24 25.5848 159.482 25.4624 159.768C25.3399 160.055 25.3089 160.372 25.3733 160.677C25.4378 160.982 25.5947 161.259 25.8227 161.472C26.0506 161.684 26.3385 161.821 26.6472 161.864L30.647 162.29C31.8678 162.43 33.0394 162.851 34.0686 163.523C35.0977 164.194 35.9561 165.096 36.5755 166.157L38.5792 169.638C38.7416 169.906 38.9831 170.116 39.2703 170.24C39.5575 170.365 39.8763 170.397 40.1825 170.332C40.4887 170.267 40.7672 170.109 40.9794 169.879C41.1917 169.649 41.3273 169.359 41.3675 169.048L41.7951 165.053C41.9339 163.835 42.3543 162.666 43.0231 161.638C43.6918 160.611 44.5906 159.753 45.6483 159.133L49.1339 157.128C49.3987 156.964 49.6065 156.722 49.7289 156.436C49.8513 156.149 49.8824 155.832 49.8179 155.527C49.7535 155.222 49.5966 154.944 49.3686 154.732C49.1406 154.52 48.8527 154.383 48.5441 154.34L48.4666 154.336Z" fill="url(#paint4_radial_171_561)"/>
<path d="M16.2657 120.614L19.0762 125.493C19.9412 126.975 21.1409 128.234 22.5793 129.169C24.0177 130.105 25.655 130.691 27.3604 130.881L32.9644 131.474L33.0734 131.481C33.5075 131.538 33.9134 131.728 34.2349 132.025C34.5564 132.323 34.7777 132.712 34.8683 133.141C34.9589 133.569 34.9144 134.015 34.7407 134.417C34.5671 134.819 34.273 135.157 33.899 135.385L29.02 138.195C27.5365 139.059 26.2756 140.258 25.3383 141.696C24.401 143.134 23.8131 144.771 23.6219 146.477L23.0267 152.071C22.9699 152.505 22.7798 152.911 22.4825 153.233C22.1853 153.554 21.7956 153.775 21.3672 153.866C20.9388 153.957 20.4929 153.912 20.0909 153.738C19.6889 153.565 19.3508 153.271 19.123 152.897L16.3136 148.023C15.4508 146.534 14.2508 145.269 12.8101 144.328C11.3695 143.388 9.72823 142.798 8.01834 142.607L2.41429 142.014C1.98013 141.957 1.57428 141.767 1.25277 141.47C0.931257 141.172 0.709924 140.783 0.619314 140.354C0.528703 139.926 0.573283 139.48 0.746902 139.078C0.920521 138.676 1.21462 138.338 1.58861 138.11L6.47252 135.299C7.93312 134.425 9.17113 133.225 10.0891 131.792C11.0072 130.359 11.5801 128.732 11.763 127.04L12.3582 121.446C12.4136 121.01 12.6032 120.603 12.9008 120.28C13.1983 119.957 13.589 119.734 14.0187 119.643C14.4483 119.552 14.8956 119.598 15.2985 119.772C15.7013 119.947 16.0387 120.238 16.2657 120.614Z" fill="url(#paint5_radial_171_561)"/>
<defs>
<radialGradient id="paint0_radial_171_561" cx="0" cy="0" r="1" gradientUnits="userSpaceOnUse" gradientTransform="translate(-290.497 -483.999) rotate(56.615) scale(781.445 669.271)">
<stop offset="0.772" stop-color="#FFCD0F"/>
<stop offset="0.991" stop-color="#E67505"/>
</radialGradient>
<radialGradient id="paint1_radial_171_561" cx="0" cy="0" r="1" gradientUnits="userSpaceOnUse" gradientTransform="translate(97.997 104.006) rotate(-106.66) scale(102.325 147.626)">
<stop stop-color="#B03111"/>
<stop offset="1" stop-color="#E67505"/>
</radialGradient>
<radialGradient id="paint2_radial_171_561" cx="0" cy="0" r="1" gradientUnits="userSpaceOnUse" gradientTransform="translate(102.754 -58.2155) rotate(56.772) scale(143.068 111.404)">
<stop offset="0.718" stop-color="#F2AF29"/>
<stop offset="0.991" stop-color="#F2AF29"/>
</radialGradient>
<radialGradient id="paint3_radial_171_561" cx="0" cy="0" r="1" gradientUnits="userSpaceOnUse" gradientTransform="translate(79.8033 -79.7785) rotate(54.5931) scale(150.49 117.183)">
<stop offset="0.698" stop-color="#FFCD0F"/>
<stop offset="0.991" stop-color="#E67505"/>
</radialGradient>
<radialGradient id="paint4_radial_171_561" cx="0" cy="0" r="1" gradientUnits="userSpaceOnUse" gradientTransform="translate(-38.8776 65.3545) rotate(51.436) scale(143.068 111.404)">
<stop offset="0.718" stop-color="#F2AF29"/>
<stop offset="0.991" stop-color="#F2AF29"/>
</radialGradient>
<radialGradient id="paint5_radial_171_561" cx="0" cy="0" r="1" gradientUnits="userSpaceOnUse" gradientTransform="translate(-63.7344 46.0192) rotate(49.257) scale(150.49 117.183)">
<stop offset="0.698" stop-color="#FFCD0F"/>
<stop offset="0.991" stop-color="#E67505"/>
</radialGradient>
</defs>
</svg>
