<svg width="48" height="49" viewBox="0 0 48 49" fill="none" xmlns="http://www.w3.org/2000/svg">
<path d="M23.994 31.46C23.1033 31.46 22.3433 31.1433 21.714 30.51C21.0847 29.8767 20.77 29.1147 20.77 28.224C20.77 27.3333 21.0867 26.5733 21.72 25.944C22.3533 25.3147 23.116 25 24.008 25C24.9 25 25.66 25.3173 26.288 25.952C26.916 26.5867 27.2307 27.3487 27.232 28.238C27.2333 29.1273 26.916 29.8873 26.28 30.518C25.644 31.1487 24.882 31.4633 23.994 31.462M16.75 16H31.25L34.982 8.5H13.02L16.75 16ZM17.262 40.5H30.738C33.3113 40.5 35.498 39.5993 37.298 37.798C39.0993 35.9967 40 33.806 40 31.226C40 30.1487 39.8153 29.0993 39.446 28.078C39.0767 27.0567 38.5433 26.1267 37.846 25.288L31.762 18H16.238L10.154 25.288C9.45667 26.1267 8.92333 27.0567 8.554 28.078C8.18467 29.098 8 30.1473 8 31.226C8 33.806 8.90067 35.9967 10.702 37.798C12.5033 39.5993 14.69 40.5 17.262 40.5Z" fill="black"/>
</svg>
