<svg width="16" height="16" viewBox="0 0 16 16" fill="none" xmlns="http://www.w3.org/2000/svg">
<path d="M2 8C2 7.21207 2.15519 6.43185 2.45672 5.7039C2.75825 4.97595 3.20021 4.31451 3.75736 3.75736C4.31451 3.20021 4.97595 2.75825 5.7039 2.45672C6.43185 2.15519 7.21207 2 8 2C8.78793 2 9.56815 2.15519 10.2961 2.45672C11.0241 2.75825 11.6855 3.20021 12.2426 3.75736C12.7998 4.31451 13.2417 4.97595 13.5433 5.7039C13.8448 6.43185 14 7.21207 14 8C14 9.5913 13.3679 11.1174 12.2426 12.2426C11.1174 13.3679 9.5913 14 8 14C6.4087 14 4.88258 13.3679 3.75736 12.2426C2.63214 11.1174 2 9.5913 2 8Z" fill="url(#paint0_linear_280_4778)"/>
<path d="M11.4286 8.64286H4.57143C4.41988 8.64286 4.27453 8.58265 4.16737 8.47549C4.0602 8.36833 4 8.22298 4 8.07143C4 7.91988 4.0602 7.77453 4.16737 7.66737C4.27453 7.5602 4.41988 7.5 4.57143 7.5H11.4286C11.5801 7.5 11.7255 7.5602 11.8326 7.66737C11.9398 7.77453 12 7.91988 12 8.07143C12 8.22298 11.9398 8.36833 11.8326 8.47549C11.7255 8.58265 11.5801 8.64286 11.4286 8.64286Z" fill="url(#paint1_linear_280_4778)"/>
<defs>
<linearGradient id="paint0_linear_280_4778" x1="3.5" y1="2.4992" x2="16.4032" y2="17.7677" gradientUnits="userSpaceOnUse">
<stop stop-color="#B03111"/>
<stop offset="1" stop-color="#3D1A12"/>
</linearGradient>
<linearGradient id="paint1_linear_280_4778" x1="5.5" y1="7.61657" x2="5.55403" y2="8.95162" gradientUnits="userSpaceOnUse">
<stop stop-color="white"/>
<stop offset="1" stop-color="#F2CFC6"/>
</linearGradient>
</defs>
</svg>
