<svg width="17" height="16" viewBox="0 0 17 16" fill="none" xmlns="http://www.w3.org/2000/svg">
<path d="M2.5 8C2.5 7.21207 2.65519 6.43185 2.95672 5.7039C3.25825 4.97595 3.70021 4.31451 4.25736 3.75736C4.81451 3.20021 5.47595 2.75825 6.2039 2.45672C6.93185 2.15519 7.71207 2 8.5 2C9.28793 2 10.0681 2.15519 10.7961 2.45672C11.5241 2.75825 12.1855 3.20021 12.7426 3.75736C13.2998 4.31451 13.7417 4.97595 14.0433 5.7039C14.3448 6.43185 14.5 7.21207 14.5 8C14.5 9.5913 13.8679 11.1174 12.7426 12.2426C11.6174 13.3679 10.0913 14 8.5 14C6.9087 14 5.38258 13.3679 4.25736 12.2426C3.13214 11.1174 2.5 9.5913 2.5 8Z" fill="url(#paint0_linear_120_828)"/>
<path d="M8.5 5C8.36739 5 8.24021 5.05268 8.14645 5.14645C8.05268 5.24021 8 5.36739 8 5.5V7.5H6C5.86739 7.5 5.74021 7.55268 5.64645 7.64645C5.55268 7.74021 5.5 7.86739 5.5 8C5.5 8.13261 5.55268 8.25979 5.64645 8.35355C5.74021 8.44732 5.86739 8.5 6 8.5H8V10.5C8 10.6326 8.05268 10.7598 8.14645 10.8536C8.24021 10.9473 8.36739 11 8.5 11C8.63261 11 8.75979 10.9473 8.85355 10.8536C8.94732 10.7598 9 10.6326 9 10.5V8.5H11C11.1326 8.5 11.2598 8.44732 11.3536 8.35355C11.4473 8.25979 11.5 8.13261 11.5 8C11.5 7.86739 11.4473 7.74021 11.3536 7.64645C11.2598 7.55268 11.1326 7.5 11 7.5H9V5.5C9 5.36739 8.94732 5.24021 8.85355 5.14645C8.75979 5.05268 8.63261 5 8.5 5Z" fill="url(#paint1_linear_120_828)"/>
<defs>
<linearGradient id="paint0_linear_120_828" x1="4" y1="2.4992" x2="16.9032" y2="17.7677" gradientUnits="userSpaceOnUse">
<stop stop-color="#2AFC98"/>
<stop offset="1" stop-color="#226F54"/>
</linearGradient>
<linearGradient id="paint1_linear_120_828" x1="6.625" y1="5.612" x2="8.466" y2="12.111" gradientUnits="userSpaceOnUse">
<stop stop-color="white"/>
<stop offset="1" stop-color="#E3FFD9"/>
</linearGradient>
</defs>
</svg>
