<svg width="49" height="49" viewBox="0 0 49 49" fill="none" xmlns="http://www.w3.org/2000/svg">
<path d="M24.3335 4.5C35.3795 4.5 44.3335 13.454 44.3335 24.5C44.3335 35.546 35.3795 44.5 24.3335 44.5C13.2875 44.5 4.3335 35.546 4.3335 24.5C4.3335 13.454 13.2875 4.5 24.3335 4.5ZM24.3335 12.5C23.8031 12.5 23.2944 12.7107 22.9193 13.0858C22.5442 13.4609 22.3335 13.9696 22.3335 14.5V24.5C22.3336 25.0304 22.5444 25.539 22.9195 25.914L28.9195 31.914C29.2967 32.2783 29.8019 32.4799 30.3263 32.4753C30.8507 32.4708 31.3523 32.2605 31.7231 31.8896C32.0939 31.5188 32.3043 31.0172 32.3088 30.4928C32.3134 29.9684 32.1118 29.4632 31.7475 29.086L26.3335 23.672V14.5C26.3335 13.9696 26.1228 13.4609 25.7477 13.0858C25.3726 12.7107 24.8639 12.5 24.3335 12.5Z" fill="black"/>
</svg>
