<svg width="49" height="48" viewBox="0 0 49 48" fill="none" xmlns="http://www.w3.org/2000/svg">
<path d="M6.5 24C6.5 21.6362 6.96558 19.2956 7.87017 17.1117C8.77475 14.9278 10.1006 12.9435 11.7721 11.2721C13.4435 9.60062 15.4278 8.27475 17.6117 7.37017C19.7956 6.46558 22.1362 6 24.5 6C26.8638 6 29.2044 6.46558 31.3883 7.37017C33.5722 8.27475 35.5565 9.60062 37.2279 11.2721C38.8994 12.9435 40.2252 14.9278 41.1298 17.1117C42.0344 19.2956 42.5 21.6362 42.5 24C42.5 28.7739 40.6036 33.3523 37.2279 36.7279C33.8523 40.1036 29.2739 42 24.5 42C19.7261 42 15.1477 40.1036 11.7721 36.7279C8.39642 33.3523 6.5 28.7739 6.5 24Z" fill="url(#paint0_radial_95_551)"/>
<path d="M24.5 30C23.9033 30 23.331 30.2371 22.909 30.659C22.4871 31.081 22.25 31.6533 22.25 32.25C22.25 32.8467 22.4871 33.419 22.909 33.841C23.331 34.2629 23.9033 34.5 24.5 34.5C25.0967 34.5 25.669 34.2629 26.091 33.841C26.5129 33.419 26.75 32.8467 26.75 32.25C26.75 31.6533 26.5129 31.081 26.091 30.659C25.669 30.2371 25.0967 30 24.5 30ZM24.5 13.5C24.1489 13.4999 23.8089 13.6229 23.5392 13.8477C23.2695 14.0724 23.0872 14.3847 23.024 14.73L23 15V25.5L23.024 25.77C23.0866 26.1158 23.2687 26.4287 23.5385 26.654C23.8082 26.8793 24.1485 27.0027 24.5 27.0027C24.8515 27.0027 25.1918 26.8793 25.4615 26.654C25.7313 26.4287 25.9134 26.1158 25.976 25.77L26 25.5V15L25.976 14.73C25.9128 14.3847 25.7305 14.0724 25.4608 13.8477C25.1911 13.6229 24.8511 13.4999 24.5 13.5Z" fill="url(#paint1_linear_95_551)"/>
<defs>
<radialGradient id="paint0_radial_95_551" cx="0" cy="0" r="1" gradientUnits="userSpaceOnUse" gradientTransform="translate(-55.6602 -129.447) rotate(63.3608) scale(206.043 160.517)">
<stop offset="0.718" stop-color="#F2AF29"/>
<stop offset="0.991" stop-color="#F2AF29"/>
</radialGradient>
<linearGradient id="paint1_linear_95_551" x1="18.5" y1="13.5" x2="28.139" y2="35.532" gradientUnits="userSpaceOnUse">
<stop stop-color="#4A4A4A"/>
<stop offset="1" stop-color="#212121"/>
</linearGradient>
</defs>
</svg>
